<svg width="81" height="113" viewBox="0 0 81 113" fill="none" xmlns="http://www.w3.org/2000/svg">
<path d="M32.5 49C14.5784 49 0 63.3541 0 81C0 98.6459 14.5784 113 32.5 113C50.4216 113 65 98.6459 65 81C65 74.6557 63.1069 68.7417 59.8612 63.7636L57.9265 66.0136C60.6042 70.4018 62.1739 75.5183 62.1739 81C62.1739 97.1099 48.8616 110.217 32.5 110.217C16.1384 110.217 2.82609 97.1099 2.82609 81C2.82609 64.8901 16.1384 51.7826 32.5 51.7826C40.1912 51.7826 47.187 54.704 52.4648 59.4484L54.3139 57.2989C48.5416 52.1441 40.8864 49 32.5 49ZM58.2687 57.0054L30.9655 88.7283L19.4735 78.1739L17.5471 80.2092L31.2056 92.7527L60.4269 58.8043L58.2687 57.0054Z" fill="#A8715A"/>
<path d="M59.8566 13.6348C58.1691 14.5377 54 14.939 54 14.939V16.5441C54 16.5441 58.1691 16.9453 59.8566 17.8482C61.4449 18.7511 62.8346 19.9549 63.8272 21.56C64.9191 23.1651 65.614 24.9708 66.1103 27.0775C66.6066 29.1842 66.8051 31 66.8051 31H68.1949C68.1949 31 68.6847 28.1201 68.8897 27.0775C69.386 24.9708 70.1801 23.1651 71.1728 21.56C72.1654 19.9549 73.4559 18.7511 75.1434 17.8482C76.8309 16.9453 81 16.5441 81 16.5441V14.939C81 14.939 76.8309 14.5377 75.1434 13.6348C73.5551 12.732 72.1654 11.5281 71.1728 9.92303C70.0809 8.31793 69.386 6.5122 68.8897 4.40551C68.662 3.16374 68.1949 0 68.1949 0H66.8051C66.8051 0 66.3437 3.60319 66.1103 4.40551C65.614 6.5122 64.8198 8.31793 63.8272 9.92303C62.8346 11.5281 61.5441 12.732 59.8566 13.6348Z" fill="#E0CFBA"/>
<path d="M2.15786 35.9366C1.5361 36.2635 0 36.4088 0 36.4088V36.9899C0 36.9899 1.5361 37.1352 2.15786 37.4621C2.74304 37.789 3.25507 38.2249 3.62081 38.806C4.02313 39.3871 4.27915 40.0409 4.46202 40.8037C4.64488 41.5664 4.71803 42.2238 4.71803 42.2238H5.23007C5.23007 42.2238 5.41056 41.1811 5.48608 40.8037C5.66895 40.0409 5.96154 39.3871 6.32728 38.806C6.69302 38.2249 7.16848 37.789 7.79024 37.4621C8.41199 37.1352 9.9481 36.9899 9.9481 36.9899V36.4088C9.9481 36.4088 8.41199 36.2635 7.79024 35.9366C7.20506 35.6097 6.69302 35.1739 6.32728 34.5927C5.92497 34.0116 5.66895 33.3578 5.48608 32.5951C5.40218 32.1455 5.23007 31 5.23007 31H4.71803C4.71803 31 4.54803 32.3046 4.46202 32.5951C4.27915 33.3578 3.98655 34.0116 3.62081 34.5927C3.25507 35.1739 2.77962 35.6097 2.15786 35.9366Z" fill="#E0CFBA"/>
</svg>
