<svg width="41" height="42" viewBox="0 0 41 42" fill="none" xmlns="http://www.w3.org/2000/svg">
<path d="M20.3965 5.48016C12.125 5.48016 5.39648 12.3675 5.39648 20.8343C5.39648 29.301 12.125 36.1884 20.3965 36.1884C28.668 36.1884 35.3965 29.301 35.3965 20.8343C35.3965 12.3675 28.668 5.48016 20.3965 5.48016ZM20.3965 8.03918C27.3154 8.03918 32.8965 13.752 32.8965 20.8343C32.8965 27.9166 27.3154 33.6294 20.3965 33.6294C13.4775 33.6294 7.89648 27.9166 7.89648 20.8343C7.89648 13.752 13.4775 8.03918 20.3965 8.03918ZM14.7715 15.7162C13.7363 15.7162 12.8965 16.5759 12.8965 17.6355C12.8965 18.6951 13.7363 19.5548 14.7715 19.5548C15.8066 19.5548 16.6465 18.6951 16.6465 17.6355C16.6465 16.5759 15.8066 15.7162 14.7715 15.7162ZM26.0215 15.7162C24.9863 15.7162 24.1465 16.5759 24.1465 17.6355C24.1465 18.6951 24.9863 19.5548 26.0215 19.5548C27.0566 19.5548 27.8965 18.6951 27.8965 17.6355C27.8965 16.5759 27.0566 15.7162 26.0215 15.7162ZM13.9121 24.6728L11.7637 25.9523C13.4922 29.0061 16.7051 31.0703 20.3965 31.0703C24.0879 31.0703 27.3008 29.0061 29.0293 25.9523L26.8809 24.6728C25.582 26.9669 23.1797 28.5113 20.3965 28.5113C17.6133 28.5113 15.2109 26.9669 13.9121 24.6728Z" fill="#E0CFBA"/>
</svg>
