<svg width="41" height="42" viewBox="0 0 41 42" fill="none" xmlns="http://www.w3.org/2000/svg">
<path d="M20.3965 5.48016C12.125 5.48016 5.39648 12.3675 5.39648 20.8343C5.39648 29.301 12.125 36.1884 20.3965 36.1884C28.668 36.1884 35.3965 29.301 35.3965 20.8343C35.3965 12.3675 28.668 5.48016 20.3965 5.48016ZM20.3965 8.03918C27.3154 8.03918 32.8965 13.752 32.8965 20.8343C32.8965 27.9166 27.3154 33.6294 20.3965 33.6294C13.4775 33.6294 7.89648 27.9166 7.89648 20.8343C7.89648 13.752 13.4775 8.03918 20.3965 8.03918ZM13.5215 14.4367C12.4863 14.4367 11.6465 15.2964 11.6465 16.356C11.6465 16.4759 11.6563 16.5909 11.6855 16.7159C11.7393 17.0207 11.8613 17.2806 12.0371 17.5155C12.9746 19.1699 15.3965 20.8343 15.3965 20.8343C15.3965 20.8343 19.1465 18.3952 19.1465 16.356C19.1465 15.2964 18.3066 14.4367 17.2715 14.4367C16.2363 14.4367 15.3965 15.2964 15.3965 16.356C15.3965 15.2964 14.5566 14.4367 13.5215 14.4367ZM23.5215 14.4367C22.4863 14.4367 21.6465 15.2964 21.6465 16.356C21.6465 16.4759 21.6562 16.5909 21.6855 16.7159C21.7393 17.0207 21.8613 17.2806 22.0371 17.5155C22.9746 19.1699 25.3965 20.8343 25.3965 20.8343C25.3965 20.8343 27.8818 19.1849 28.7949 17.4756C28.9951 17.0957 29.1465 16.7258 29.1465 16.356C29.1465 15.2964 28.3066 14.4367 27.2715 14.4367C26.2363 14.4367 25.3965 15.2964 25.3965 16.356C25.3965 15.2964 24.5566 14.4367 23.5215 14.4367ZM13.9121 24.6728L11.7637 25.9523C13.4922 29.0061 16.7051 31.0703 20.3965 31.0703C24.0879 31.0703 27.3008 29.0061 29.0293 25.9523L26.8809 24.6728C25.582 26.9669 23.1797 28.5113 20.3965 28.5113C17.6133 28.5113 15.2109 26.9669 13.9121 24.6728Z" fill="#E0CFBA"/>
</svg>
