<svg width="41" height="42" viewBox="0 0 41 42" fill="none" xmlns="http://www.w3.org/2000/svg">
<path d="M20.3965 5.48016C12.1272 5.48016 5.39648 12.3697 5.39648 20.8343C5.39648 29.2988 12.1272 36.1884 20.3965 36.1884C28.6658 36.1884 35.3965 29.2988 35.3965 20.8343C35.3965 12.3697 28.6658 5.48016 20.3965 5.48016ZM20.3965 8.03918C27.3147 8.03918 32.8965 13.7528 32.8965 20.8343C32.8965 27.9158 27.3147 33.6294 20.3965 33.6294C13.4783 33.6294 7.89648 27.9158 7.89648 20.8343C7.89648 13.7528 13.4783 8.03918 20.3965 8.03918ZM12.4058 17.2581L10.8872 19.2924C10.8872 19.2924 12.7899 20.8343 15.3965 20.8343C18.003 20.8343 19.9058 19.2924 19.9058 19.2924L18.3872 17.2581C18.3872 17.2581 17.0174 18.2753 15.3965 18.2753C13.7755 18.2753 12.4058 17.2581 12.4058 17.2581ZM22.4058 17.2581L20.8872 19.2924C20.8872 19.2924 22.7899 20.8343 25.3965 20.8343C28.003 20.8343 29.9058 19.2924 29.9058 19.2924L28.3872 17.2581C28.3872 17.2581 27.0174 18.2753 25.3965 18.2753C23.7755 18.2753 22.4058 17.2581 22.4058 17.2581ZM20.3965 24.6728C17.7899 24.6728 15.8872 26.2147 15.8872 26.2147L17.4058 28.2489C17.4058 28.2489 18.7755 27.2318 20.3965 27.2318C22.0174 27.2318 23.3872 28.2489 23.3872 28.2489L24.9058 26.2147C24.9058 26.2147 23.003 24.6728 20.3965 24.6728Z" fill="#E0CFBA"/>
</svg>
